<svg xmlns="http://www.w3.org/2000/svg" xmlns:xlink="http://www.w3.org/1999/xlink" width="500" zoomAndPan="magnify" viewBox="0 0 375 374.999991" height="500" preserveAspectRatio="xMidYMid meet" version="1.0"><defs><filter x="0%" y="0%" width="100%" height="100%" id="d3d4e9d199"><feColorMatrix values="0 0 0 0 1 0 0 0 0 1 0 0 0 0 1 0 0 0 1 0" color-interpolation-filters="sRGB"/></filter><g/><mask id="1ce57acf46"><g filter="url(#d3d4e9d199)"><rect x="-37.5" width="450" fill="#000000" y="-37.499999" height="449.999989" fill-opacity="0.25"/></g></mask><clipPath id="b7588f3c00"><path d="M 0.179688 0 L 174 0 L 174 375 L 0.179688 375 Z M 0.179688 0 " clip-rule="nonzero"/></clipPath><clipPath id="432d24206b"><rect x="0" width="174" y="0" height="375"/></clipPath></defs><g mask="url(#1ce57acf46)"><g transform="matrix(1, 0, 0, 1, 201, 0)"><g clip-path="url(#432d24206b)"><g clip-path="url(#b7588f3c00)"><path fill="#263248" d="M 198.097656 279.546875 C 153.015625 279.546875 116.46875 243 116.46875 197.917969 C 116.46875 152.835938 153.015625 116.289062 198.097656 116.289062 C 243.179688 116.289062 279.726562 152.835938 279.726562 197.917969 C 279.726562 243 243.179688 279.546875 198.097656 279.546875 Z M 385.328125 159.753906 L 348.785156 155.425781 C 345.484375 143.6875 340.800781 132.257812 334.707031 121.398438 L 357.476562 92.511719 C 361.277344 87.691406 360.871094 80.789062 356.53125 76.457031 L 319.5625 39.484375 C 315.226562 35.148438 308.324219 34.738281 303.503906 38.539062 L 274.617188 61.308594 C 263.761719 55.21875 252.328125 50.53125 240.589844 47.230469 L 236.265625 10.683594 C 235.542969 4.589844 230.375 0 224.238281 0 L 171.957031 0 C 165.820312 0 160.65625 4.589844 159.933594 10.683594 L 155.605469 47.230469 C 143.867188 50.53125 132.4375 55.21875 121.578125 61.308594 L 92.6875 38.539062 C 87.871094 34.738281 80.972656 35.148438 76.632812 39.484375 L 39.667969 76.457031 C 35.328125 80.789062 34.917969 87.691406 38.71875 92.511719 L 61.488281 121.398438 C 55.398438 132.257812 50.710938 143.6875 47.414062 155.425781 L 10.863281 159.753906 C 4.769531 160.476562 0.179688 165.640625 0.179688 171.777344 L 0.179688 224.054688 C 0.179688 230.195312 4.769531 235.359375 10.863281 236.085938 L 47.414062 240.410156 C 50.710938 252.144531 55.398438 263.578125 61.488281 274.4375 L 38.71875 303.324219 C 34.917969 308.144531 35.328125 315.046875 39.667969 319.378906 L 76.632812 356.351562 C 80.972656 360.6875 87.871094 361.097656 92.6875 357.296875 L 121.578125 334.527344 C 132.4375 340.617188 143.867188 345.304688 155.605469 348.605469 L 159.933594 385.148438 C 160.65625 391.246094 165.820312 395.835938 171.957031 395.835938 L 223.371094 395.835938 C 229.398438 395.835938 234.511719 391.402344 235.359375 385.429688 L 240.589844 348.605469 C 252.328125 345.304688 263.761719 340.617188 274.617188 334.527344 L 303.503906 357.296875 C 308.324219 361.097656 315.226562 360.6875 319.5625 356.351562 L 356.53125 319.378906 C 360.871094 315.046875 361.277344 308.144531 357.476562 303.324219 L 334.707031 274.4375 C 340.800781 263.578125 345.484375 252.144531 348.785156 240.410156 L 385.328125 236.085938 C 391.425781 235.359375 396.015625 230.195312 396.015625 224.054688 L 396.015625 171.777344 C 396.015625 165.640625 391.425781 160.476562 385.328125 159.753906 " fill-opacity="1" fill-rule="nonzero"/></g></g></g></g><g fill="#ffffff" fill-opacity="1"><g transform="translate(321.788391, 328.89997)"><g><path d="M 0.0625 -0.03125 C 0.0625 -0.0507812 0.0625 -0.0664062 0.0625 -0.078125 C 0.0703125 -0.0859375 0.0820312 -0.09375 0.09375 -0.09375 C 0.113281 -0.09375 0.125 -0.0859375 0.125 -0.078125 C 0.132812 -0.0664062 0.140625 -0.0507812 0.140625 -0.03125 C 0.140625 -0.0195312 0.132812 -0.0078125 0.125 0 C 0.125 0.0078125 0.113281 0.015625 0.09375 0.015625 C 0.0820312 0.015625 0.0703125 0.0078125 0.0625 0 C 0.0625 -0.0078125 0.0625 -0.0195312 0.0625 -0.03125 Z M 0.0625 -0.03125 "/></g></g></g></svg>