<svg xmlns="http://www.w3.org/2000/svg" xmlns:xlink="http://www.w3.org/1999/xlink" width="500" zoomAndPan="magnify" viewBox="0 0 375 374.999991" height="500" preserveAspectRatio="xMidYMid meet" version="1.0"><defs><filter x="0%" y="0%" width="100%" height="100%" id="5f0ccaa5a7"><feColorMatrix values="0 0 0 0 1 0 0 0 0 1 0 0 0 0 1 0 0 0 1 0" color-interpolation-filters="sRGB"/></filter><g/><mask id="d139209685"><g filter="url(#5f0ccaa5a7)"><rect x="-37.5" width="450" fill="#000000" y="-37.499999" height="449.999989" fill-opacity="0.25"/></g></mask><clipPath id="e9edc092aa"><rect x="0" width="375" y="0" height="375"/></clipPath></defs><g mask="url(#d139209685)"><g transform="matrix(1, 0, 0, 1, 0, 0)"><g clip-path="url(#e9edc092aa)"><path fill="#000000" d="M 187.5 264.832031 C 230.210938 264.832031 264.832031 230.210938 264.832031 187.5 C 264.832031 144.789062 230.210938 110.167969 187.5 110.167969 C 144.789062 110.167969 110.167969 144.789062 110.167969 187.5 C 110.167969 230.210938 144.789062 264.832031 187.5 264.832031 Z M 10.125 151.34375 L 44.746094 147.246094 C 47.875 136.121094 52.3125 125.292969 58.082031 115.007812 L 36.511719 87.644531 C 32.910156 83.074219 33.296875 76.539062 37.40625 72.429688 L 72.429688 37.40625 C 76.539062 33.296875 83.074219 32.910156 87.644531 36.511719 L 115.007812 58.082031 C 125.292969 52.3125 136.125 47.875 147.246094 44.746094 L 151.34375 10.121094 C 152.027344 4.347656 156.921875 0 162.738281 0 L 212.265625 0 C 218.078125 0 222.972656 4.347656 223.65625 10.121094 L 227.753906 44.746094 C 238.878906 47.875 249.707031 52.3125 259.992188 58.082031 L 287.359375 36.511719 C 291.925781 32.910156 298.460938 33.296875 302.574219 37.40625 L 337.59375 72.429688 C 341.703125 76.539062 342.089844 83.074219 338.488281 87.644531 L 316.917969 115.007812 C 322.6875 125.292969 327.128906 136.121094 330.253906 147.246094 L 364.878906 151.34375 C 370.652344 152.027344 375 156.921875 375 162.734375 L 375 212.261719 C 375 218.078125 370.652344 222.972656 364.878906 223.65625 L 330.253906 227.753906 C 327.128906 238.875 322.6875 249.707031 316.917969 259.992188 L 338.488281 287.355469 C 342.089844 291.925781 341.703125 298.460938 337.59375 302.570312 L 302.574219 337.59375 C 298.460938 341.703125 291.925781 342.089844 287.359375 338.488281 L 259.992188 316.917969 C 249.707031 322.6875 238.878906 327.125 227.753906 330.253906 L 223.65625 364.875 C 222.972656 370.652344 218.078125 375 212.265625 375 L 163.554688 375 C 157.847656 375 153.003906 370.800781 152.199219 365.140625 L 147.246094 330.253906 C 136.125 327.125 125.292969 322.6875 115.007812 316.917969 L 87.644531 338.488281 C 83.074219 342.089844 76.539062 341.703125 72.429688 337.59375 L 37.40625 302.570312 C 33.296875 298.460938 32.910156 291.925781 36.511719 287.355469 L 58.082031 259.992188 C 52.3125 249.707031 47.875 238.875 44.746094 227.753906 L 10.125 223.65625 C 4.347656 222.972656 0 218.078125 0 212.261719 L 0 162.734375 C 0 156.921875 4.347656 152.027344 10.125 151.34375 " fill-opacity="1" fill-rule="nonzero"/></g></g></g><g fill="#ffffff" fill-opacity="1"><g transform="translate(321.788391, 328.89997)"><g><path d="M 0.0546875 -0.0390625 C 0.0546875 -0.0546875 0.0585938 -0.0664062 0.0664062 -0.0742188 C 0.0742188 -0.0859375 0.0859375 -0.0898438 0.0976562 -0.0898438 C 0.113281 -0.0898438 0.125 -0.0859375 0.132812 -0.0742188 C 0.140625 -0.0664062 0.144531 -0.0546875 0.144531 -0.0390625 C 0.144531 -0.0234375 0.140625 -0.0117188 0.132812 -0.00390625 C 0.125 0.0078125 0.113281 0.0117188 0.0976562 0.0117188 C 0.0859375 0.0117188 0.0742188 0.0078125 0.0664062 0 C 0.0585938 -0.0078125 0.0546875 -0.0195312 0.0546875 -0.0390625 Z M 0.0546875 -0.0390625 "/></g></g></g></svg>