<svg xmlns="http://www.w3.org/2000/svg" xmlns:xlink="http://www.w3.org/1999/xlink" width="500" zoomAndPan="magnify" viewBox="0 0 375 374.999991" height="500" preserveAspectRatio="xMidYMid meet" version="1.0"><defs><filter x="0%" y="0%" width="100%" height="100%" id="25c4f33ffd"><feColorMatrix values="0 0 0 0 1 0 0 0 0 1 0 0 0 0 1 0 0 0 1 0" color-interpolation-filters="sRGB"/></filter><g/><mask id="5222a65901"><g filter="url(#25c4f33ffd)"><rect x="-37.5" width="450" fill="#000000" y="-37.499999" height="449.999989" fill-opacity="0.25"/></g></mask><clipPath id="351569a7b5"><path d="M 0 0.449219 L 205.65625 0.449219 L 205.65625 358.199219 L 0 358.199219 Z M 0 0.449219 " clip-rule="nonzero"/></clipPath><clipPath id="21939ee007"><rect x="0" width="207" y="0" height="359"/></clipPath></defs><g mask="url(#5222a65901)"><g transform="matrix(1, 0, 0, 1, 0, 8)"><g clip-path="url(#21939ee007)"><g clip-path="url(#351569a7b5)"><path fill="#000000" d="M 26.953125 253.339844 C 67.738281 253.339844 100.796875 220.277344 100.796875 179.496094 C 100.796875 138.710938 67.738281 105.648438 26.953125 105.648438 C -13.832031 105.648438 -46.890625 138.710938 -46.890625 179.496094 C -46.890625 220.277344 -13.832031 253.339844 26.953125 253.339844 Z M -142.425781 144.96875 L -109.363281 141.054688 C -106.378906 130.433594 -102.140625 120.09375 -96.632812 110.273438 L -117.230469 84.140625 C -120.667969 79.78125 -120.296875 73.535156 -116.371094 69.613281 L -82.925781 36.171875 C -79.003906 32.246094 -72.761719 31.875 -68.402344 35.3125 L -42.269531 55.910156 C -32.449219 50.402344 -22.105469 46.164062 -11.488281 43.179688 L -7.574219 10.113281 C -6.921875 4.601562 -2.246094 0.449219 3.308594 0.449219 L 50.601562 0.449219 C 56.152344 0.449219 60.824219 4.601562 61.476562 10.113281 L 65.390625 43.179688 C 76.011719 46.164062 86.351562 50.402344 96.175781 55.910156 L 122.308594 35.3125 C 126.667969 31.875 132.910156 32.246094 136.835938 36.171875 L 170.277344 69.613281 C 174.203125 73.535156 174.574219 79.78125 171.132812 84.140625 L 150.535156 110.273438 C 156.046875 120.09375 160.285156 130.433594 163.269531 141.054688 L 196.332031 144.96875 C 201.847656 145.621094 205.996094 150.292969 205.996094 155.84375 L 205.996094 203.140625 C 205.996094 208.695312 201.847656 213.367188 196.332031 214.023438 L 163.269531 217.933594 C 160.285156 228.550781 156.046875 238.894531 150.535156 248.71875 L 171.132812 274.847656 C 174.574219 279.210938 174.203125 285.453125 170.277344 289.375 L 136.835938 322.820312 C 132.910156 326.746094 126.667969 327.113281 122.308594 323.675781 L 96.175781 303.078125 C 86.351562 308.585938 76.011719 312.824219 65.390625 315.8125 L 61.476562 348.871094 C 60.824219 354.386719 56.152344 358.539062 50.601562 358.539062 L 4.089844 358.539062 C -1.363281 358.539062 -5.988281 354.527344 -6.753906 349.125 L -11.488281 315.8125 C -22.105469 312.824219 -32.449219 308.585938 -42.269531 303.078125 L -68.402344 323.675781 C -72.761719 327.113281 -79.003906 326.746094 -82.925781 322.820312 L -116.371094 289.375 C -120.296875 285.453125 -120.667969 279.210938 -117.230469 274.847656 L -96.632812 248.71875 C -102.140625 238.894531 -106.378906 228.550781 -109.363281 217.933594 L -142.425781 214.023438 C -147.941406 213.367188 -152.09375 208.695312 -152.09375 203.140625 L -152.09375 155.84375 C -152.09375 150.292969 -147.941406 145.621094 -142.425781 144.96875 " fill-opacity="1" fill-rule="nonzero"/></g></g></g></g><g fill="#ffffff" fill-opacity="1"><g transform="translate(321.788391, 328.89997)"><g><path d="M 0.0625 -0.03125 C 0.0625 -0.0507812 0.0625 -0.0664062 0.0625 -0.078125 C 0.0703125 -0.0859375 0.0820312 -0.09375 0.09375 -0.09375 C 0.113281 -0.09375 0.125 -0.0859375 0.125 -0.078125 C 0.132812 -0.0664062 0.140625 -0.0507812 0.140625 -0.03125 C 0.140625 -0.0195312 0.132812 -0.0078125 0.125 0 C 0.125 0.0078125 0.113281 0.015625 0.09375 0.015625 C 0.0820312 0.015625 0.0703125 0.0078125 0.0625 0 C 0.0625 -0.0078125 0.0625 -0.0195312 0.0625 -0.03125 Z M 0.0625 -0.03125 "/></g></g></g></svg>