<svg xmlns="http://www.w3.org/2000/svg" xmlns:xlink="http://www.w3.org/1999/xlink" width="500" zoomAndPan="magnify" viewBox="0 0 375 374.999991" height="500" preserveAspectRatio="xMidYMid meet" version="1.0"><defs><filter x="0%" y="0%" width="100%" height="100%" id="9b56bab410"><feColorMatrix values="0 0 0 0 1 0 0 0 0 1 0 0 0 0 1 0 0 0 1 0" color-interpolation-filters="sRGB"/></filter><g/><mask id="d20e61fc60"><g filter="url(#9b56bab410)"><rect x="-37.5" width="450" fill="#000000" y="-37.499999" height="449.999989" fill-opacity="0.25"/></g></mask><clipPath id="dba6861bb2"><path d="M 0.0820312 0 L 173 0 L 173 163.921875 L 0.0820312 163.921875 Z M 0.0820312 0 " clip-rule="nonzero"/></clipPath><clipPath id="6782cbf83b"><rect x="0" width="173" y="0" height="164"/></clipPath></defs><g mask="url(#d20e61fc60)"><g transform="matrix(1, 0, 0, 1, 202, 0)"><g clip-path="url(#6782cbf83b)"><g clip-path="url(#dba6861bb2)"><path fill="#000000" d="M 143.519531 79.523438 C 176.195312 79.523438 202.679688 53.039062 202.679688 20.363281 C 202.679688 -12.308594 176.195312 -38.792969 143.519531 -38.792969 C 110.847656 -38.792969 84.363281 -12.308594 84.363281 20.363281 C 84.363281 53.039062 110.847656 79.523438 143.519531 79.523438 Z M 7.828125 -7.292969 L 34.3125 -10.429688 C 36.707031 -18.9375 40.101562 -27.222656 44.515625 -35.089844 L 28.011719 -56.027344 C 25.257812 -59.519531 25.554688 -64.519531 28.699219 -67.664062 L 55.492188 -94.457031 C 58.636719 -97.601562 63.636719 -97.898438 67.128906 -95.144531 L 88.066406 -78.640625 C 95.933594 -83.054688 104.21875 -86.449219 112.726562 -88.84375 L 115.859375 -115.328125 C 116.382812 -119.746094 120.128906 -123.074219 124.578125 -123.074219 L 162.464844 -123.074219 C 166.914062 -123.074219 170.65625 -119.746094 171.179688 -115.328125 L 174.316406 -88.84375 C 182.824219 -86.449219 191.109375 -83.054688 198.976562 -78.640625 L 219.914062 -95.144531 C 223.40625 -97.898438 228.40625 -97.601562 231.550781 -94.457031 L 258.339844 -67.664062 C 261.488281 -64.519531 261.78125 -59.519531 259.027344 -56.027344 L 242.527344 -35.089844 C 246.941406 -27.222656 250.339844 -18.9375 252.726562 -10.429688 L 279.214844 -7.292969 C 283.632812 -6.769531 286.957031 -3.027344 286.957031 1.417969 L 286.957031 39.308594 C 286.957031 43.757812 283.632812 47.5 279.214844 48.027344 L 252.726562 51.160156 C 250.339844 59.664062 246.941406 67.953125 242.527344 75.820312 L 259.027344 96.753906 C 261.78125 100.25 261.488281 105.25 258.339844 108.394531 L 231.550781 135.1875 C 228.40625 138.332031 223.40625 138.628906 219.914062 135.871094 L 198.976562 119.371094 C 191.109375 123.785156 182.824219 127.179688 174.316406 129.570312 L 171.179688 156.058594 C 170.65625 160.476562 166.914062 163.800781 162.464844 163.800781 L 125.203125 163.800781 C 120.835938 163.800781 117.132812 160.589844 116.515625 156.261719 L 112.726562 129.570312 C 104.21875 127.179688 95.933594 123.785156 88.066406 119.371094 L 67.128906 135.871094 C 63.636719 138.628906 58.636719 138.332031 55.492188 135.1875 L 28.699219 108.394531 C 25.554688 105.25 25.257812 100.25 28.011719 96.753906 L 44.515625 75.820312 C 40.101562 67.953125 36.707031 59.664062 34.3125 51.160156 L 7.828125 48.027344 C 3.410156 47.5 0.0820312 43.757812 0.0820312 39.308594 L 0.0820312 1.417969 C 0.0820312 -3.027344 3.410156 -6.769531 7.828125 -7.292969 " fill-opacity="1" fill-rule="nonzero"/></g></g></g></g><g fill="#ffffff" fill-opacity="1"><g transform="translate(321.788391, 328.89997)"><g><path d="M 0.0625 -0.03125 C 0.0625 -0.0507812 0.0625 -0.0664062 0.0625 -0.078125 C 0.0703125 -0.0859375 0.0820312 -0.09375 0.09375 -0.09375 C 0.113281 -0.09375 0.125 -0.0859375 0.125 -0.078125 C 0.132812 -0.0664062 0.140625 -0.0507812 0.140625 -0.03125 C 0.140625 -0.0195312 0.132812 -0.0078125 0.125 0 C 0.125 0.0078125 0.113281 0.015625 0.09375 0.015625 C 0.0820312 0.015625 0.0703125 0.0078125 0.0625 0 C 0.0625 -0.0078125 0.0625 -0.0195312 0.0625 -0.03125 Z M 0.0625 -0.03125 "/></g></g></g></svg>